<?xml version="1.0" encoding="utf-8"?>
<!-- Generator: Adobe Illustrator 17.1.0, SVG Export Plug-In . SVG Version: 6.00 Build 0)  -->
<!DOCTYPE svg PUBLIC "-//W3C//DTD SVG 1.1//EN" "http://www.w3.org/Graphics/SVG/1.1/DTD/svg11.dtd">
<svg version="1.1" id="Layer_1" xmlns="http://www.w3.org/2000/svg" xmlns:xlink="http://www.w3.org/1999/xlink" x="0px" y="0px"
	 viewBox="220 0 30 70" enable-background="new 220 0 30 70" xml:space="preserve">
<path fill="#FF3000" d="M235,64.6c0,0-11.9-10-11.9-10l-2.9,1.6c0,0,14.7,12.4,14.7,12.4l14.7-12.4l-2.9-1.6L235,64.6z M220,0v43.1
	l3.1-1.8V3.1h23.8v38.2l3.1,1.8V0H220z M226.7,47.9l6.7-3.9v7.8h3.1V44l6.7,3.9l1.5-2.7l-6.7-3.9l6.7-3.9l-1.5-2.7l-6.7,3.9V23.1
	l6.7,3.9l1.5-2.7l-6.7-3.9l6.7-3.9l-1.5-2.7l-6.7,3.9V10h-3.1v7.8l-6.7-3.9l-1.5,2.7l6.7,3.9l-6.7,3.9l1.5,2.7l6.7-3.9v15.5
	l-6.7-3.9l-1.5,2.7l6.7,3.9l-6.7,3.9L226.7,47.9z"/>
</svg>
