<?xml version="1.0" encoding="utf-8"?>
<!-- Generator: Adobe Illustrator 26.4.1, SVG Export Plug-In . SVG Version: 6.00 Build 0)  -->
<svg version="1.1" id="Layer_1" xmlns="http://www.w3.org/2000/svg" xmlns:xlink="http://www.w3.org/1999/xlink" x="0px" y="0px"
	 viewBox="0 0 112.5 77.7" style="enable-background:new 0 0 112.5 77.7;" xml:space="preserve">
<style type="text/css">
	.st0{fill:#FF3000;}
</style>
<path class="st0" d="M56.3,69.6l-11.9-10l-2.9,1.6l14.7,12.4l14.7-12.4L68,59.6L56.3,69.6z M41.3,5v43.1l3.1-1.8V8.1h23.8v38.2
	l3.1,1.8V5H41.3z M48,52.9l6.7-3.9v7.8h3.1V49l6.7,3.9l1.5-2.7l-6.7-3.9l6.7-3.9l-1.5-2.7l-6.7,3.9V28.1l6.7,3.9l1.5-2.7l-6.7-3.9
	l6.7-3.9l-1.5-2.7l-6.7,3.9V15h-3.1v7.8L48,18.9l-1.5,2.7l6.7,3.9l-6.7,3.9l1.5,2.7l6.7-3.9v15.5L48,39.8l-1.5,2.7l6.7,3.9l-6.7,3.9
	L48,52.9z"/>
</svg>
