<?xml version="1.0" encoding="UTF-8"?><svg id="a" xmlns="http://www.w3.org/2000/svg" width="599.16" height="578.15" viewBox="0 0 599.16 578.15"><path d="M38.01,258.53c-.8-2.16-1.33-3.64-1.89-5.12-2.54-6.73-5.19-13.41-7.61-20.18-2.6-7.25-4.26-14.72-4.95-22.41-.53-5.83,.15-11.5,2.03-17.01,2.2-6.44,6.17-11.47,12.07-14.98,4.56-2.71,9.38-4.82,14.39-6.5,5.15-1.72,10.37-3.23,15.55-4.86,2.13-.67,4.28-1.31,6.36-2.13,.98-.39,1.81-1.15,2.87-1.85-.49-1.54-.89-2.89-1.34-4.23-2.81-8.46-1.21-16.14,4.38-22.92,2.12-2.57,4.62-4.9,7.26-6.93,5.88-4.52,12.57-7.55,19.6-9.88,3.85-1.27,7.61-1.13,11.2,.58,2.87,1.37,5.66,2.96,8.28,4.77,4.49,3.11,8.26,7.05,11.89,11.11,.83,.93,1.73,1.79,2.47,2.55,1.36-.27,1.41-1.11,1.4-1.89-.05-3.2-.08-6.4-.25-9.59-.51-9.26-1.05-18.52-1.64-27.78-.44-7.02-1.02-14.03-1.44-21.06-.58-9.6-.55-19.18,1.33-28.67,.16-.78,.29-1.58,.51-2.34,1.86-6.44,6.14-9.84,12.84-10.28,3.25-.21,6.36,.43,9.41,1.46,4.12,1.39,7.88,3.49,11.48,5.89,5.74,3.83,10.95,8.32,15.82,13.18,3.4,3.39,6.65,6.92,10.02,10.33,1.23,1.24,2.49,2.51,3.95,3.45,2.28,1.46,3.68,1.2,5.48-.84,1.26-1.43,2.44-2.98,3.45-4.59,2.2-3.52,4.35-7.09,6.39-10.7,4.64-8.21,9.07-16.55,13.83-24.68,3.47-5.93,7.31-11.64,11.04-17.4,5.38-8.31,13.33-12.01,22.96-12.82,7.77-.65,15.31,.19,22.63,2.91,5.46,2.04,10.38,4.95,14.63,8.95,7.4,6.97,13.53,14.93,18.07,24.03,1.63,3.25,2.77,6.75,4.26,10.42,.71-.14,1.63-.21,2.48-.51,3.63-1.28,7.31-2.22,11.14-2.74,9.97-1.35,17.54,2.37,22.78,10.77,1.67,2.68,2.68,5.78,3.97,8.69,.37,.85,.68,1.73,1,2.55,1.63,.42,2.62-.56,3.7-1.12,6.67-3.45,13.2-7.2,20-10.37,11.44-5.34,23.26-9.79,35.26-13.7,6.43-2.09,13.07-3,19.86-2.34,4.24,.41,8.09,1.85,11.59,4.2,4.28,2.87,6.63,6.87,6.53,12.1-.13,7.66-1.7,15.01-6.21,21.31-4.28,5.97-8.98,11.64-13.55,17.4-1.89,2.38-3.96,4.61-5.9,6.95-.68,.82-1.22,1.77-1.73,2.52,.82,1.34,1.85,1.12,2.73,.98,5.05-.76,10.1-1.53,15.13-2.42,4.87-.87,9.72-1.9,14.58-2.83,4.74-.9,9.52-1.04,14.33-.85,8.67,.34,16.12,3.64,22.55,9.37,3.72,3.31,6.98,7.04,9.91,11.05,4.16,5.7,7.69,11.77,10.57,18.22,3.05,6.83,3.53,13.88,1.98,21.11-1.78,8.34-7.08,13.43-15.49,14.93-2.46,.44-4.94,.75-7.32,1.38,.15,1.47,1.17,1.69,1.97,2.16,3.59,2.09,7.23,4.1,10.72,6.34,4.07,2.6,7.49,5.87,10.32,9.88,2.67,3.78,5.75,7.27,8.79,10.78,12.44,14.4,25.05,28.66,37.37,43.17,6.21,7.31,11.95,15,17.85,22.57,1.17,1.5,2.19,3.16,3.1,4.84,2.8,5.23,3.19,10.66,1.02,16.2-2.42,6.15-6.27,11.11-12.22,14.24-2.26,1.19-4.53,2.38-6.85,3.46-3.51,1.62-7.17,2.69-11.09,2.76-1.12,.02-2.23,.16-3.34,.31-5.17,.71-6.25,2.73-3.92,7.54,1.32,2.73,2.83,5.37,4.23,8.07,2.21,4.26,4.53,8.46,6.54,12.82,1.8,3.91,3.48,7.91,4.79,12.01,1.81,5.66,2.8,11.46,1.9,17.48-.93,6.16-3.25,11.7-7.06,16.58-1.96,2.51-4.08,4.95-6.42,7.11-4.14,3.82-7.76,8.05-11.07,12.58-.66,.9-1.41,1.75-2,2.7-3.07,4.93-7.72,7.5-13.16,8.9-6.99,1.81-14.1,2.81-21.32,2.89-2.22,.02-4.44,0-7.05,0,.17,1.22,.08,2.18,.45,2.9,1.01,1.99,2.19,3.9,3.36,5.8,2.18,3.54,4.41,7.05,6.58,10.59,2.28,3.71,2.83,7.77,2.21,12.01-.89,6.05-2.7,11.83-5.23,17.39-1.91,4.18-4.83,7.53-8.46,10.25-5.32,3.99-11.17,6.77-17.88,7.57-4.44,.53-8.86,1.27-13.28,1.94-1.41,.21-2.8,.51-4.42,.8-.06,1.19-.24,2.28-.14,3.35,.71,7.64,1.46,15.27,2.23,22.91,.53,5.29,.23,10.55-.52,15.79-.32,2.24-1.03,4.32-2.46,6.15-1.68,2.13-3.22,4.37-4.85,6.54-.96,1.28-1.9,2.58-2.98,3.75-3.96,4.34-8.78,5.93-14.68,5.09-9.29-1.31-16.47-5.75-21.66-13.5-1.95-2.92-3.73-5.97-5.79-8.82-1.67-2.33-3.5-4.57-5.5-6.62-2.12-2.19-4.69-3.8-7.97-4.59-.73,.81-1.61,1.51-2.17,2.42-2.66,4.37-5.33,8.73-7.82,13.2-3.26,5.87-6.26,11.88-9.56,17.73-2.12,3.75-4.52,7.35-6.88,10.96-6.31,9.67-15.48,14.55-26.78,15.59-9.79,.89-19.48,.38-28.91-2.77-4.73-1.58-9.19-3.67-13.27-6.56-4.52-3.19-8.28-7.1-10.88-11.97-3.08-5.78-5.85-11.72-8.82-17.56-.62-1.22-.69-2.86-2.57-3.53-.49,.75-1.05,1.47-1.49,2.27-5.6,10.27-14.5,15.88-25.7,18.24-4.26,.9-8.54,1.23-12.86,.54-7.94-1.27-14.37-5.16-19.4-11.38-5.28-6.53-8.09-14.08-8.91-22.4-.12-1.25-.24-2.5-.39-4.05-1.13,.26-2.08,.3-2.87,.68-3.17,1.52-6.3,3.12-9.43,4.72-11.54,5.87-23.14,11.61-35.34,16.02-7.38,2.67-14.9,4.78-22.71,5.77-4.65,.59-9.24,.49-13.82-.54-.62-.14-1.24-.32-1.84-.52-10.21-3.39-12.85-9.78-13.25-17.33-.15-2.84,.27-5.75,.76-8.57,1.13-6.53,3.52-12.64,7.27-18.11,1.43-2.08,3.35-3.83,5.07-5.7,.51-.55,1.1-1.04,1.73-1.63-1.61-2.03-3.74-2.23-5.7-2.63-1.55-.32-3.19-.37-4.78-.32-6.75,.24-13.38-.87-20.01-1.85-3.83-.56-7.43-1.83-10.7-3.97-1.32-.87-2.77-1.57-4.2-2.24-10.79-5.08-20.68-11.46-29.04-20.06-3.58-3.68-6.76-7.67-9.19-12.23-2.37-4.45-3.79-9.14-3.55-14.25,.05-.96,.12-1.93-.02-2.87-.67-4.67,.62-8.88,2.95-12.83,5.35-9.09,12.5-16.57,20.92-22.84,3.08-2.29,6.62-3.87,10.26-5.13,1.06-.37,2.14-.67,3.18-1.07,3.51-1.36,4.47-2.95,2.98-6.23-3.88-8.52-9.86-14.53-19.81-15.17-7.02-.45-13.44-2.67-19.42-6.27-4.13-2.48-7.83-5.53-11.28-8.88-5.18-5.03-9.73-10.61-14.01-16.4-6.66-9-13.5-17.88-19.79-27.13-7.58-11.14-9.08-23.02-2.65-35.34,2.37-4.54,5.96-7.87,10.42-10.31,5.68-3.1,11.81-4.81,18.16-5.82,1.58-.22,3.11-.56,5.39-1.01Zm148.2,88.58c1.18,1.35,1.61,1.81,2,2.29,5.31,6.61,10.62,13.2,15.91,19.83,7.08,8.88,14.18,17.73,21.16,26.68,3.05,3.9,5.54,7.97,6.05,13.27,.52,5.37,3.75,7.61,9.23,7.75,2.72,.07,5.44,.08,8.15-.01,6.62-.23,8.9-2.67,8.67-9.21-.13-3.52-.49-7.03-.46-10.54,.19-24.63,.45-49.25,.68-73.88,.02-1.76,.01-3.52-.16-5.27-.58-6.06-3.11-8.4-9.3-8.6-2.87-.09-5.76-.09-8.63,.01-1.59,.06-3.19,.27-4.73,.65-2.4,.59-3.4,1.89-3.64,4.43-.09,.95-.05,1.92-.04,2.88,.05,4.48,.08,8.96,.16,13.43,.21,11.67,.45,23.34,.63,35.02,0,.85,.46,1.97-1.16,2.52-1.04-1.24-2.19-2.54-3.27-3.9-13.4-16.72-26.78-33.45-40.17-50.17-.9-1.12-1.83-2.22-2.73-3.34-.74-.93-1.68-1.5-2.87-1.48-4.63,.05-9.29-.15-13.88,.3-4.57,.45-6.04,2.41-6.13,6.99-.06,3.04,.06,6.08,.05,9.12-.15,25.43-.33,50.85-.44,76.28,0,2.86,.18,5.76,.65,8.58,.48,2.86,2.22,5.13,5.19,5.65,5.53,.97,11.12,1.07,16.63-.17,2.8-.63,4.31-2.64,4.49-5.52,.09-1.43,.05-2.88-.06-4.31-.21-2.87-.65-5.73-.75-8.6-.57-15.5-1.07-31-1.57-46.51-.04-1.04,.16-2.1,.34-4.17Zm231.68-82.43c.64,1.62,1.39,3.36,2.01,5.15,1.41,4.07,2.72,8.18,4.13,12.25s4.31,6.25,8.62,6.37c3.19,.09,6.39,.03,9.58,.03,.16,0,.32-.01,.48-.02,4.19-.37,5.94-2.33,5.75-6.6-.07-1.43-.33-2.86-.63-4.26-.3-1.4-.76-2.77-1.17-4.15-8.75-28.88-17.49-57.76-26.26-86.63-1.92-6.31-5.24-9.2-11.68-9.45-7.01-.27-14.05-.12-21.07,0-5.81,.1-9.37,3.09-11.16,8.7-9.63,30.11-19.38,60.18-29.08,90.26-.44,1.37-.86,2.76-1.09,4.17-.77,4.72,2.1,8.15,6.48,8.01,3.51-.11,7.03,.04,10.54-.03,5.26-.11,7.46-1.89,9.01-6.88,1.47-4.73,3.02-9.42,4.58-14.12,.34-1.03,.87-2.01,1.26-2.9,4.72-.62,35.61-.56,39.7,.1Zm-248.65-3.9c-3.43,2.63-5.42,5.96-6.54,9.91-1.54,5.44,.69,9.67,4.55,12.05,2.42,1.49,5.06,2.8,7.77,3.63,12.08,3.7,24.4,4.92,36.93,2.85,5.86-.97,11.49-2.73,16.69-5.71,10-5.73,15.95-14.19,16.68-25.81,.65-10.55-2.73-19.55-11.67-25.84-2.34-1.65-4.88-3.05-7.45-4.31-4.61-2.26-9.53-3.63-14.52-4.8-4.97-1.17-9.93-2.39-14.79-3.93-2.39-.76-4.64-2.12-6.77-3.5s-3.06-3.52-3.04-6.16c.04-5.86,3.32-10.16,9.42-11.67,3.09-.76,6.26-1.08,9.51-.83,8.23,.65,16.02,2.79,23.44,6.35,1.1,.53,2.3,.87,3.42,1.28,3.11-2.91,4.94-6.25,6.01-9.97,1.55-5.38,.22-9.01-4.65-11.79-2.88-1.65-6.05-2.9-9.22-3.92-9.73-3.11-19.76-3.7-29.86-2.8-5.43,.49-10.67,1.95-15.59,4.4-11.12,5.53-17.97,14.2-19.06,26.79-1.04,12.01,3.15,21.62,13.73,28,4.28,2.58,8.92,4.27,13.76,5.44,5.27,1.28,10.56,2.51,15.83,3.82,3.26,.81,6.44,1.91,9.3,3.73,5.4,3.44,6.6,9.21,3.01,14.49-1.19,1.75-2.76,3.1-4.64,4.07-2.58,1.33-5.32,2.14-8.24,2.32-10.77,.66-20.98-1.29-30.54-6.41-1.14-.58-2.28-1.1-3.47-1.68Zm133.3,7.99c-.3-.03-.6-.06-.91-.09-.49-1.84-.95-3.69-1.48-5.52-7.33-25.65-14.66-51.3-22-76.95-.26-.92-.57-1.83-.92-2.72-1.4-3.59-3.91-5.86-7.85-6.06-3.5-.18-7.03-.29-10.53-.07-4.52,.28-6.41,2.37-6.1,6.82,.19,2.68,.86,5.36,1.61,7.95,5.98,20.39,12.04,40.75,18.05,61.13,2.53,8.58,4.96,17.19,7.48,25.77,1.91,6.51,5.46,9.33,12.13,9.43,6.55,.1,13.11,.12,19.66-.03,5.77-.13,8.72-2.45,10.66-7.92,.16-.45,.25-.93,.4-1.38,4.94-15.19,9.92-30.37,14.81-45.58,4.7-14.6,9.32-29.22,13.93-43.85,.57-1.82,1.11-3.72,1.21-5.6,.18-3.57-1.52-6.65-5.77-6.77-4.47-.12-8.94-.05-13.41,.08-3.71,.11-5.77,2.28-6.67,5.78-.79,3.09-1.66,6.17-2.54,9.24-7,24.58-14.01,49.16-21.02,73.73-.25,.88-.49,1.75-.74,2.61Zm137.38,67.01c3.71-2.05,6.64-5.4,8.14-9.22,1.99-5.06,.74-8.98-3.87-11.99-3.1-2.03-6.53-3.36-10.07-4.38-8.41-2.42-17.03-2.83-25.66-2.06-19.96,1.79-34.09,11.66-41.46,30.59-2.28,5.85-3.34,11.96-4,18.2-.98,9.21-.15,18.25,2.55,27.03,5.31,17.29,16.79,28.3,34.39,32.74,7.05,1.78,14.25,1.77,21.45,1.42,6.28-.31,12.37-1.65,18.12-4.17,2.9-1.27,5.68-2.94,8.25-4.79,2.52-1.81,2.77-3.5,1.32-6.27-1.64-3.11-3.41-6.16-5.26-9.14-2.58-4.15-4.48-4.61-8.66-1.91-4.39,2.84-9.12,4.56-14.27,5.25-13.31,1.77-23.46-3.86-28.8-15.69-.46-1.02-.93-2.05-1.25-3.11-3.25-10.55-3.33-21.15,.17-31.6,3.88-11.59,12.79-17.8,25.06-17.86,7.99-.04,15.54,1.63,22.29,6.17,.5,.34,1.09,.56,1.56,.79Zm-124.53,17.39c-.81-1.18-1.22-1.67-1.52-2.22-6.45-11.78-12.99-23.5-19.27-35.37-2.1-3.96-4.94-6.15-9.41-6.15-3.68-.01-7.36-.03-11.03,.02-.94,.01-1.92,.18-2.82,.45-1.93,.58-3.01,1.91-2.95,3.87,.04,1.24,.33,2.54,.79,3.7,.52,1.32,1.34,2.54,2.07,3.77,9.32,15.67,18.6,31.36,28,46.97,2.05,3.4,3.06,6.84,2.95,10.85-.25,8.47-.17,16.96-.16,25.43,0,1.91,.05,3.86,.45,5.71,.94,4.29,3.29,6.41,7.63,6.66,3.82,.22,7.67,.07,11.51-.01,.94-.02,1.88-.37,2.8-.62,2.4-.67,3.87-2.32,4.27-4.7,.28-1.7,.2-3.49,.12-5.23-.11-2.39-.53-4.77-.56-7.16-.1-7.36-.04-14.72-.12-22.08-.02-2,.47-3.69,1.56-5.39,10.74-16.67,21.42-33.37,32.12-50.06,.6-.94,1.3-1.84,1.79-2.83,2.09-4.19-.27-8.94-4.97-9.19-5.08-.27-10.21,.04-15.31,.32-3.32,.19-5.47,2.16-6.87,5.2-5.55,12.07-12.29,23.51-18.92,35-.53,.93-1.23,1.76-2.15,3.06Zm96.96-109.89c-4.65-15.56-9.31-31.11-13.99-46.65-.03-.09-.26-.13-.72-.33-.36,1-.77,1.96-1.07,2.96-4.18,13.88-8.38,27.75-12.48,41.65-.42,1.42-1.56,2.86-.64,4.49,3.9,.5,23.96,.54,29.15,.02-.09-.91-.07-1.56-.25-2.14Z" fill="red"/></svg>